<?xml version="1.0" encoding="UTF-8" standalone="no"?>
<!-- Created with Inkscape (http://www.inkscape.org/) -->

<svg
   width="210mm"
   height="297mm"
   viewBox="0 0 210 297"
   version="1.1"
   id="svg1"
   inkscape:version="1.3.2 (091e20ef0f, 2023-11-25)"
   sodipodi:docname="fwew.svg"
   inkscape:export-filename="favicon.png"
   inkscape:export-xdpi="15.240001"
   inkscape:export-ydpi="15.240001"
   xmlns:inkscape="http://www.inkscape.org/namespaces/inkscape"
   xmlns:sodipodi="http://sodipodi.sourceforge.net/DTD/sodipodi-0.dtd"
   xmlns="http://www.w3.org/2000/svg"
   xmlns:svg="http://www.w3.org/2000/svg">
  <sodipodi:namedview
     id="namedview1"
     pagecolor="#505050"
     bordercolor="#eeeeee"
     borderopacity="1"
     inkscape:showpageshadow="0"
     inkscape:pageopacity="0"
     inkscape:pagecheckerboard="0"
     inkscape:deskcolor="#505050"
     inkscape:document-units="mm"
     inkscape:zoom="0.93198951"
     inkscape:cx="411.48532"
     inkscape:cy="655.58678"
     inkscape:window-width="1440"
     inkscape:window-height="834"
     inkscape:window-x="0"
     inkscape:window-y="0"
     inkscape:window-maximized="1"
     inkscape:current-layer="layer3"
     showgrid="false" />
  <defs
     id="defs1">
    <rect
       x="152.01787"
       y="393.682"
       width="605.55218"
       height="413.41057"
       id="rect1" />
  </defs>
  <g
     inkscape:groupmode="layer"
     id="layer3"
     inkscape:label="Layer 3"
     style="display:inline">
    <rect
       style="stroke-width:0.330729;fill-opacity:1;fill:#7494ba;"
       id="rect2"
       width="80"
       height="80"
       x="65"
       y="108.5"
       rx="1.25"
       ry="1.25"
       inkscape:export-filename="../Code/fwedit/public/favicon.ico"
       inkscape:export-xdpi="162.56001"
       inkscape:export-ydpi="162.56001" />
  </g>
  <g
     inkscape:groupmode="layer"
     id="layer2"
     inkscape:label="Layer 2"
     transform="translate(-12.952217,-12.952225)">
    <circle
       style="stroke-width:0.444496;fill-opacity:1;fill:#7494ba;display:inline;"
       id="path1"
       cx="117.95222"
       cy="161.45222"
       r="32"
       inkscape:export-filename="../Code/forks/corscheid/fwew-react/assets/images/icon.png"
       inkscape:export-xdpi="406.39999"
       inkscape:export-ydpi="406.39999" />
  </g>
  <g
     inkscape:label="Layer 1"
     inkscape:groupmode="layer"
     id="layer1">
    <path
       style="stroke-width:0.395516;fill-opacity:1;fill:#ffffff;white-space:pre;-inkscape-font-specification:'Eoio, Normal';font-family:Eoio;font-size:85.3333px;"
       d="m 91.794935,142.01136 h 4.379875 c 0.390776,0 0.765272,0.36694 0.765272,0.76726 v 0.0331 l -0.0163,0.0335 -2.132958,8.00638 c -0.01632,0.40031 -0.358208,0.71724 -0.748971,0.71724 l -6.708224,-1.20097 c -0.341927,0 -0.683849,-0.33361 -0.700126,-0.71724 l -2.523729,-6.77205 -0.01627,-0.0502 v -0.05 c 0,-0.40036 0.309354,-0.76729 0.748972,-0.76729 h 4.021674 0.244231 l 0.01631,0.21687 0.374486,4.65369 c 0,0.25017 0.227948,0.45035 0.455901,0.45035 h 0.814101 c 0.227949,0 0.423333,-0.20018 0.423333,-0.43368 l 0.358206,-4.67036 0.01631,-0.21687 z m 20.010705,-6.07153 -0.0162,-0.83401 c 0,-0.2335 -0.1954,-0.45033 -0.42336,-0.45033 l -19.294254,-0.6005 -0.22795,-0.0167 v -0.21682 l 0.08141,-3.06911 c 0,-0.21683 -0.195389,-0.45037 -0.423337,-0.46705 l -2.295775,0.46705 c -0.276793,0 -0.488464,0.20014 -0.488464,0.43366 l 0.211671,8.1065 v 0.28352 l -0.276798,-0.0331 -6.805915,-0.6672 c -0.1791,0 -0.814099,0.75059 -0.846665,1.01747 l 3.663471,12.86027 v 0.0331 0.0331 c 0,0.23355 0.227944,0.43372 0.455899,0.43372 l 2.132952,-0.0833 0.635002,-0.3336 0.04885,-0.0167 h 0.06512 l 5.894117,-0.0167 h 0.09769 l 0.0651,0.0833 0.325633,0.36697 h 1.302575 c 0.227937,0 0.439611,-0.20016 0.439611,-0.43368 v -0.0502 l 0.0163,-0.0331 4.412457,-13.21053 c 0,-0.2502 -0.0653,-0.38364 -0.895524,-0.40032 -1.009489,0 -1.937559,1.05087 -1.953849,1.06752 l -0.0487,0.0667 -0.0815,0.0167 -0.455905,0.0502 -0.0163,0.0167 -0.0326,-0.0167 -5.161411,-0.50042 -0.19539,-0.0167 v -0.23351 l 0.0489,-2.05163 v -0.21682 h 0.21167 l 10.436819,-0.3503 h 0.24423 l 0.0162,0.2502 0.71644,26.22087 0.0162,0.28358 -0.26052,-0.0167 -3.435525,-0.2502 c -0.211638,0 -0.390756,0.23354 -0.390756,0.46706 l 0.488445,2.33517 c 0.0162,0.26688 0.211676,0.46705 0.439626,0.46705 l 8.64579,-0.90071 c 0.13022,0 0.24427,-0.0502 0.32566,-0.1335 0.0815,-0.0833 0.11399,-0.21685 0.11399,-0.33361 l -0.0324,-0.8173 c 0,-0.23351 -0.17909,-0.45038 -0.40707,-0.45038 l -3.5006,-0.23353 -0.21169,-0.0167 0.0162,-0.23353 0.61871,-26.62121 V 136.757 l 0.22795,-0.0167 5.35681,-0.33356 c 0.22797,0 0.40706,-0.23353 0.40706,-0.46707 z m 14.45847,-1.36772 -12.74888,-0.61718 h -0.0162 c -0.0977,0 -0.19537,0.0502 -0.27681,0.1335 -0.0815,0.0833 -0.11399,0.18348 -0.11399,0.30025 0,0.0167 0,0.0167 0,0.0167 l 0.48846,2.35186 c 0.0162,0.28357 0.21167,0.48374 0.45588,0.48374 l 12.22787,-0.91739 c 0.24422,-0.0167 0.43959,-0.20017 0.43959,-0.45038 v 0 l -0.0162,-0.86735 c -0.0162,-0.23351 -0.21166,-0.43365 -0.43961,-0.43365 z m -1.02575,6.42175 -9.67158,-0.63385 c 0,0 0,0 -0.0162,0 -0.0977,0 -0.19539,0.0667 -0.27679,0.1335 -0.0815,0.0833 -0.114,0.20016 -0.114,0.31693 0,0 0,0 0,0 l 0.48847,2.35188 c 0.0162,0.28355 0.21166,0.48372 0.45588,0.48372 l 9.13428,-0.91742 c 0.1464,0 0.24422,-0.05 0.32563,-0.1335 0.0815,-0.0833 0.13019,-0.20016 0.13019,-0.30024 v -0.0167 l -0.0324,-0.85067 c 0,-0.25017 -0.19535,-0.43367 -0.42329,-0.43367 z m 3.76114,8.20652 -0.0162,-0.85066 c -0.0162,-0.2502 -0.19537,-0.45033 -0.43959,-0.45033 L 112.7338,147.2822 c -0.114,0 -0.22795,0.0502 -0.30936,0.1335 -0.0815,0.0833 -0.114,0.20016 -0.114,0.31696 0,0 0,0 0,0 l 0.50477,2.35184 c 0,0.28356 0.19539,0.48374 0.43959,0.48374 l 5.71503,-0.33362 0.24422,-0.0167 0.0162,0.23352 0.65127,12.25975 0.0162,0.28357 -0.26049,-0.0167 -3.25641,-0.23353 c -0.0978,0 -0.2117,0.0502 -0.29312,0.1335 -0.0653,0.0833 -0.11399,0.20016 -0.11399,0.31692 0,0 0,0 0,0 l 0.50474,2.35186 c 0.0162,0.28356 0.21165,0.48375 0.43962,0.48375 l 8.2713,-0.91739 c 0.24422,0 0.4396,-0.20019 0.4396,-0.4504 v 0 l -0.0162,-0.85067 c -0.0162,-0.25019 -0.21166,-0.45037 -0.4396,-0.45037 l -3.17502,-0.21682 -0.22795,-0.0167 0.0162,-0.23349 0.56989,-12.64341 v -0.23356 h 0.21167 l 5.99179,-0.36691 c 0.1302,0 0.24424,-0.0502 0.32563,-0.1335 0.0815,-0.0834 0.114,-0.20017 0.114,-0.31693 z"
       id="text1"
       aria-label="FWEW"
       inkscape:export-filename="fwedit.svg"
       inkscape:export-xdpi="107.07196"
       inkscape:export-ydpi="107.07196" />
  </g>
</svg>
